<?xml version="1.0" encoding="utf-8"?>
<!-- Generator: Adobe Illustrator 21.1.0, SVG Export Plug-In . SVG Version: 6.00 Build 0)  -->
<svg version="1.1" id="Layer_1" xmlns="http://www.w3.org/2000/svg" xmlns:xlink="http://www.w3.org/1999/xlink" x="0px" y="0px"
	 viewBox="0 0 64 64" style="enable-background:new 0 0 64 64;" xml:space="preserve">
<style type="text/css">
	.st0{fill:#ACBDC5;}
	.st1{fill:#597380;}
	.st2{fill-rule:evenodd;clip-rule:evenodd;fill:#314A52;}
</style>
<g id="Monopoly-Shoe">
	<path class="st0" d="M2,56c0-6.6,5.4-12,12-12h1.4c2.3,0,4.5-0.8,6.3-2.3L30,35V20.5L54,24v32.5H2V56z"/>
	<path class="st1" d="M20,50c15.5,0,28-10.7,28-24h4v28h4v4H0v-4c0-6,4.3-10.9,10-11.8c0.6-0.1,1.3-0.2,2-0.2h4c2.2,0,4-1.8,4-4h4
		c0,4.4-3.6,8-8,8h-4c-2,0-4,0.9-4,2c0,1.1,0.9,2,2,2H20z"/>
	<path class="st2" d="M56,26.8c0.1-0.1,0.3-0.3,0.4-0.4c0.6-0.6,1.5-1.4,2.3-2.3c0.9-0.9,1.8-1.9,2.6-2.7c0.7-0.8,1.5-1.7,1.9-2.4
		c1.7-2.9,0.7-6.5-2.2-8.2c-2.9-1.7-6.5-0.7-8.2,2.2c-0.2,0.4-0.4,0.8-0.4,1.2c-0.1,0.4-0.1,0.7-0.2,1.1C52.1,16.1,52,17,52,18
		c0,1.3,0,2.7,0,4h-3c-5.6,0-11.2-1.2-16.2-3.6L32,18v0h-4v14c0,3.3-2.7,6-6,6h-2v4h2c2,0,3.9-0.6,5.5-1.7l3.1,3.1l2.8-2.8l-3.1-3.1
		c0.7-1,1.2-2.2,1.5-3.5H36v-4h-4v-7.6c5.3,2.4,11.1,3.6,17,3.6h3v24h-8v4h12V26.8z M56.3,14.9c0,0,0,0.1,0,0.1
		c0,0.2-0.1,0.4-0.1,0.7c-0.1,0.6-0.1,1.4-0.1,2.3c0,1,0,2,0,3.1c0.8-0.8,1.7-1.7,2.4-2.5c0.8-0.9,1.2-1.4,1.4-1.7
		c0.6-1,0.2-2.2-0.7-2.7C58.1,13.7,56.9,14,56.3,14.9z"/>
</g>
</svg>
