<?xml version="1.0" encoding="utf-8"?>
<!-- Generator: Adobe Illustrator 21.1.0, SVG Export Plug-In . SVG Version: 6.00 Build 0)  -->
<svg version="1.1" id="Layer_1" xmlns="http://www.w3.org/2000/svg" xmlns:xlink="http://www.w3.org/1999/xlink" x="0px" y="0px"
	 viewBox="0 0 64 64" style="enable-background:new 0 0 64 64;" xml:space="preserve">
<style type="text/css">
	.st0{fill:#BE3144;}
	.st1{fill:#BE3144;}
	.st2{fill:#BE3144;}
</style>
<g id="Monopoly-Cannon">
	<path class="st0" d="M23.4,28.2c0.2,0,0.4,0,0.6,0c8.8,0,16,7.2,16,16c0,1.2-0.1,2.4-0.4,3.6l8.4,8.4c4.4,0,8,3.4,8,7.8H8v-3.8
		c0-2.2,1.8-4,4-4h1.4C10.1,53.3,8,49,8,44.2c0-7.2,4.8-13.3,11.3-15.3L8,3.2l3.7-1.6L23.4,28.2z"/>
	<path class="st1" d="M24,32.2c-2,0-3.9,0.5-5.7,1.4s-3.2,2.3-4.3,3.9c-1.1,1.6-1.8,3.5-2,5.5c-0.2,2,0.1,3.9,0.9,5.8
		c0.8,1.8,1.9,3.4,3.5,4.7c1.5,1.3,3.3,2.1,5.3,2.5c1.9,0.4,3.9,0.3,5.8-0.3s3.6-1.6,5-3L24,44.2V32.2z"/>
	<path class="st2" d="M27.9,28.6C34.9,30.3,40,36.5,40,44c0,1-0.1,2.1-0.3,3l8.9,9H52c2.2,0,4,1.8,4,4v4h-4v-4h-5L35.3,48.3l0.3-1.1
		c0.3-1,0.4-2.1,0.4-3.2c0-5.9-4.3-10.7-9.9-11.7l-1-0.2L11.6,1.6L15.3,0L27.9,28.6z M24,48.2c2.2,0,4-1.8,4-4c0-2.2-1.8-4-4-4
		c-2.2,0-4,1.8-4,4C20,46.4,21.8,48.2,24,48.2z"/>
</g>
</svg>
