<?xml version="1.0" encoding="utf-8"?>
<!-- Generator: Adobe Illustrator 21.1.0, SVG Export Plug-In . SVG Version: 6.00 Build 0)  -->
<svg version="1.1" id="Layer_1" xmlns="http://www.w3.org/2000/svg" xmlns:xlink="http://www.w3.org/1999/xlink" x="0px" y="0px"
	 viewBox="0 0 64 64" style="enable-background:new 0 0 64 64;" xml:space="preserve">
<style type="text/css">
	.st0{fill:#ACBDC5;}
	.st1{fill-rule:evenodd;clip-rule:evenodd;fill:#597380;}
	.st2{fill-rule:evenodd;clip-rule:evenodd;fill:#314A52;}
</style>
<g id="Monopoly-Wheelbarrow">
	<path class="st0" d="M50,30v12h-2L36,30l-19,4l-3-16h24C44.6,18,50,23.4,50,30z M8,46c3.3,0,6-2.7,6-6c0-3.3-2.7-6-6-6
		c-3.3,0-6,2.7-6,6C2,43.3,4.7,46,8,46z"/>
	<path class="st1" d="M8,48c4.4,0,8-3.6,8-8c0-4.4-3.6-8-8-8c-4.4,0-8,3.6-8,8C0,44.4,3.6,48,8,48z M23.8,28c11,0,20-3.4,20-7.5
		c0-0.2,0-0.3,0-0.5h1l7,9v15h-4l-12-12l-17.5,4l0-0.1L16,36.4l-3.8-17l3.9-0.9l2,9.1C20,27.9,21.9,28,23.8,28z M8,44
		c2.2,0,4-1.8,4-4c0-2.2-1.8-4-4-4c-2.2,0-4,1.8-4,4C4,42.2,5.8,44,8,44z"/>
	<path class="st2" d="M11.5,16H41c6,0,10.9,4.8,11,10.8l11-2.8l1,3.9l-12,3v13h-4V32l-39.5,10l-1-3.9L48,27.8V27c0-3.9-3.1-7-7-7
		H12.4L11.5,16z"/>
</g>
</svg>
