<?xml version="1.0" encoding="utf-8"?>
<!-- Generator: Adobe Illustrator 21.1.0, SVG Export Plug-In . SVG Version: 6.00 Build 0)  -->
<svg version="1.1" id="Layer_1" xmlns="http://www.w3.org/2000/svg" xmlns:xlink="http://www.w3.org/1999/xlink" x="0px" y="0px"
	 viewBox="0 0 64 64" style="enable-background:new 0 0 64 64;" xml:space="preserve">
<style type="text/css">
	.st0{fill:#ACBDC5;}
	.st1{fill:#BE3144;}
	.st2{fill-rule:evenodd;clip-rule:evenodd;fill:#314A52;}
</style>
<g id="Monopoly-Car">
	<path class="st0" d="M58,42h-6v6h-8v-6H16v6H8v-6H2V32c0-3.3,2.7-6,6-6h14l8-4v2c0,3.3,2.7,6,6,6c3.3,0,6-2.7,6-6v-6
		c11,0,20,9,20,20C62,40.2,60.2,42,58,42z"/>
	<path  d="M41.2,30c1.8-1.6,1.8-3.4,1.8-5.3c0-1.2-0.3-2.3-1-3.4V18c11,0,20,9,20,20c0,2.2-1.8,4-4,4h-2v2h-2v-2l-6-5
		l-6,5v2H18v-2l-6-5l-6,5v2H0V32c0-4.4,3.6-8,8-8h13.5L32,18.8V24c0,2.2,1.8,4,4,4v4c-4,0-7.3-3-7.9-6.8L22.5,28H8c-2.2,0-4,1.8-4,4
		c0,2.2,7.2,4,16,4C29.2,36,37.2,33.6,41.2,30z"/>
	<path class="st2" d="M42,16h-2v8c0,2.2-1.8,4-4,4c-2.2,0-4-1.8-4-4v-0.5l-3.9,1.7C28.7,29,32,32,36,32c4.4,0,8-3.6,8-8v-3.9
		c9,1,16,8.6,16,17.9c0,1.1-0.9,2-2,2h-3.1c-1.4-2.4-4-4-6.9-4c-4.4,0-8,3.6-8,8c0,4.4,3.6,8,8,8c4.4,0,8-3.6,8-8h2c3.3,0,6-2.7,6-6
		C64,25.8,54.2,16,42,16z M52,44c0,2.2-1.8,4-4,4c-2.2,0-4-1.8-4-4c0-2.2,1.8-4,4-4C50.2,40,52,41.8,52,44z M20,44c0,4.4-3.6,8-8,8
		c-4.4,0-8-3.6-8-8c0-4.4,3.6-8,8-8C16.4,36,20,39.6,20,44z M16,44c0,2.2-1.8,4-4,4c-2.2,0-4-1.8-4-4c0-2.2,1.8-4,4-4
		C14.2,40,16,41.8,16,44z"/>
</g>
</svg>
