<?xml version="1.0" encoding="utf-8"?>
<!-- Generator: Adobe Illustrator 21.1.0, SVG Export Plug-In . SVG Version: 6.00 Build 0)  -->
<svg version="1.1" id="Layer_1" xmlns="http://www.w3.org/2000/svg" xmlns:xlink="http://www.w3.org/1999/xlink" x="0px" y="0px"
	 viewBox="0 0 64 64" style="enable-background:new 0 0 64 64;" xml:space="preserve">
<style type="text/css">
	.st0{fill:#ACBDC5;}
	.st1{fill:#597380;}
	.st2{fill-rule:evenodd;clip-rule:evenodd;fill:#314A52;}
</style>
<g id="Monopoly-Ship">
	<path class="st0" d="M5.8,36H12v-4h8v-6h24l6,4v19c-4.5,0.6-10.5,1-18,1c-21.6,0-30-3.5-30-3.5L5.8,36z"/>
	<path class="st1" d="M8,32H0v4h3.9L0.1,47.5l1.5,0.8C3,49,6,49.9,10.9,50.7C15.8,51.4,22.7,52,32,52c9.3,0,16.2-0.5,21.1-1.1
		c4.8-0.6,7.9-1.4,9.2-2l1.6-0.8l-2.1-6.2l-2,0.7L59,40l-9-2v-6h-6c0,4.4-9,8-20,8H6.8L8,36.3V32z"/>
	<path class="st2" d="M24,24V12h4v12h8v-8h4v8h4v-8h4v12h8v4h-4v4h7.9L64,48.1l-1.7,0.8c-1.7,0.8-6.3,1.9-14.2,2.6l-0.3-4
		c5.5-0.5,9.1-1.1,11.1-1.7L57.1,40H48v-8h-4v-4H16v-4H24z"/>
</g>
</svg>
