<?xml version="1.0" encoding="utf-8"?>
<!-- Generator: Adobe Illustrator 21.1.0, SVG Export Plug-In . SVG Version: 6.00 Build 0)  -->
<svg version="1.1" id="Layer_1" xmlns="http://www.w3.org/2000/svg" xmlns:xlink="http://www.w3.org/1999/xlink" x="0px" y="0px"
	 viewBox="0 0 64 64" style="enable-background:new 0 0 64 64;" xml:space="preserve">
<style type="text/css">
	.st0{fill:#ACBDC5;}
	.st1{fill:#597380;}
	.st2{fill:#FF6C58;}
	.st3{fill:#D7385E;}
	.st4{fill-rule:evenodd;clip-rule:evenodd;fill:#314A52;}
</style>
<g id="Monopoly-Hat">
	<path class="st0" d="M14,16c0-3.3,2.7-6,6-6h24c3.3,0,6,2.7,6,6v22.4c0,0-4.5,3.6-18,3.6s-18-3.6-18-3.6V16z"/>
	<path class="st1" d="M62,36l2,0c0,7.5-8.3,20-32,20S0,43.5,0,36c0-1.7,0.2-3.3,1.3-4.4c1.2-1.3,2.8-1.1,3.8-1
		c0.7,0.1,1.5,0.4,2.3,0.6c0.4,0.1,0.7,0.2,1.1,0.3C9.6,31.8,10.7,32,12,32v2.8c0.7,0.1,1.4,0.2,2,0.2c2.2,0,2,6.5,2,6.5h24V10h5
		l5,5v19c2.1,0,4.1-0.4,5.8-0.8C59.5,32.5,62,31.9,62,36z"/>
	<path class="st2" d="M14,41.1v-8c2.7,1.2,8.2,2.9,18,2.9s15.3-1.7,18-2.9v8c-2.7,1.2-8.2,2.9-18,2.9S16.7,42.3,14,41.1z"/>
	<path class="st3" d="M40,43.6v-8c5-0.6,8.2-1.6,10-2.5v8C48.2,41.9,45,43,40,43.6z"/>
	<path class="st4" d="M20,8c-4.4,0-8,3.6-8,8v24c0,0,1.1,0.9,4,1.9V16c0-2.2,1.8-4,4-4h24c2.2,0,4,1.8,4,4v25.9c2.9-1,4-1.9,4-1.9
		v-4c1.7,0,3.3-0.3,4.6-0.7c0.6-0.2,1-0.3,1.4-0.4c0.6-0.2,1.1-0.3,1.6-0.4c0.1,0,0.2,0,0.3,0c0.1,0.2,0.1,0.7,0.1,1.5
		c0,3.3-2.9,10-12.7,13.6l1.4,3.8C59.8,49.3,64,41.3,64,36c0-1.7-0.2-3.3-1.3-4.4c-1.2-1.3-2.8-1.1-3.8-1c-0.7,0.1-1.5,0.4-2.3,0.6
		c-0.4,0.1-0.7,0.2-1.1,0.3C54.4,31.8,53.3,32,52,32V16c0-4.4-3.6-8-8-8H20z"/>
</g>
</svg>
